<svg xmlns="http://www.w3.org/2000/svg" viewBox="0 0 512 512">
<rect width="512" height="512" rx="96" fill="#2e7d32"/>
<circle cx="256" cy="215" r="150" fill="#f7c948" stroke="#d9aa1a" stroke-width="10"/>
<circle cx="256" cy="120" r="16" fill="#2e7d32"/><circle cx="303" cy="133" r="16" fill="#2e7d32"/><circle cx="338" cy="168" r="16" fill="#2e7d32"/><circle cx="351" cy="215" r="16" fill="#2e7d32"/><circle cx="338" cy="262" r="16" fill="#2e7d32"/><circle cx="303" cy="297" r="16" fill="#2e7d32"/><circle cx="256" cy="310" r="16" fill="#2e7d32"/><circle cx="209" cy="297" r="16" fill="#2e7d32"/><circle cx="174" cy="262" r="16" fill="#2e7d32"/><circle cx="161" cy="215" r="16" fill="#2e7d32"/><circle cx="174" cy="168" r="16" fill="#2e7d32"/><circle cx="209" cy="133" r="16" fill="#2e7d32"/><circle cx="282" cy="170" r="14" fill="#2e7d32"/><circle cx="308" cy="215" r="14" fill="#2e7d32"/><circle cx="282" cy="260" r="14" fill="#2e7d32"/><circle cx="231" cy="260" r="14" fill="#2e7d32"/><circle cx="204" cy="215" r="14" fill="#2e7d32"/><circle cx="230" cy="170" r="14" fill="#2e7d32"/>
<text x="256" y="420" text-anchor="middle" font-family="Arial, Helvetica, sans-serif" font-size="34" font-weight="700" fill="#fff9e8">6-Court Mixed</text>
<text x="256" y="458" text-anchor="middle" font-family="Arial, Helvetica, sans-serif" font-size="32" font-weight="700" fill="#fff9e8">Doubles</text>
</svg>